<svg xmlns="http://www.w3.org/2000/svg" viewBox="0 0 600 600"><title>yeti-label</title><rect x="217.24" y="142.88" width="179.21" height="340.09" fill="none" stroke="#000" stroke-miterlimit="10" stroke-width="3"/><path d="M308,106.9a8.27,8.27,0,0,0-2.85,0c-14.25,2.4-119.38,22.68-106.22,44,6.32,10.22,8.2,21.46,3.88,32.15l-1.29,3.19c-4.6,11.4-23,31.33-11.05,27.82,19.6-5.75,2.25,6-8.4,23-25.2,40.25,30-21.35,0,24.91-22.4,34.5-.23,20,0,26.83.36,10.49.6,14.95,1.3,16.13,1.8,3,1.48,6.27,1.27,9.52-.33,5.06,4.47,9.63,11.59,11,23.56,4.5,51.3,5.2,79.37,9.28,26.89,3.91,17.09-4.35,17.09-10.65a11.09,11.09,0,0,1,0-4.44c1.06-5.2,11.36,1.18,16.8,0,8.72-1.87,11.56-5.65,12.6.14a18.91,18.91,0,0,1,0,4.44c-.39,6.17-2.05,8-1.33,9.57,1.86,4.12,17.25,1.29,18.42,1.08,35-6.4,58.84,1.12,79.36-9.28,7.81-4,10.47-8.14,11.6-11,1-2.45,1.07-4.81,1.26-9.52,0,0,.41-10,1.31-16.13a3,3,0,0,1,.37-1.17c1.63-2.79,7-.68,8.91-2.51,2.29-2.24-1.5-9.65-9.28-23.15-6.81-11.8-10.15-17-8.95-18,1.94-1.71,13.35,9.2,15.46,7.39,1.83-1.56-4.67-11.48-6.51-14.29-8.94-13.63-18.56-22.33-17.17-23.94.54-.62,2.2.42,8.77.94,2.24.18,3.37.27,3.65,0,1.92-2-7.27-10.37-14.7-27.78-.67-1.57-1-2.36-1.29-3.19-5-14.59,3.45-24.48,3.88-32.15C417.13,127.59,320.41,109.17,308,106.9Z" fill="#fff" stroke="#000" stroke-miterlimit="10" stroke-width="5"/><path d="M245.48,164a512.1,512.1,0,0,1,123.72,0" fill="none" stroke="#000" stroke-miterlimit="10" stroke-width="5"/><path d="M272.68,179.27l4.35-17a.51.51,0,0,0-.58-.64l-13.53,2a.52.52,0,0,0-.37.79l9.17,15A.53.53,0,0,0,272.68,179.27Z" fill="none" stroke="#000" stroke-miterlimit="10" stroke-width="4"/><path d="M343.73,179.46,352.05,164a.52.52,0,0,0-.41-.77L338,162a.51.51,0,0,0-.54.67l5.3,16.75A.52.52,0,0,0,343.73,179.46Z" fill="none" stroke="#000" stroke-miterlimit="10" stroke-width="4"/><path d="M168.05,167s-53.48,32.65-61.49,47.16c-5.17,9.37,1.17,7.61,6.3,5.2a.41.41,0,0,1,.42.69c-5.16,3.79-12.83,9.52-14.61,11.44-2.74,2.94-12.82,28.16-12.93,29.94s5.73,4.37,5.73,4.37l.12,2.83S83,269,82,279s-7.39,29.71,21.44,51.39,4.9-2.85,4.9-2.85,23.82,21.7,26.68,21.59,4.91-20.05,4.91-20.05-.8-19.81,6.74-45.63,15-54.47,15-54.47,18.3-43.27,15.09-51.65C176.71,177.31,177,167.38,168.05,167Z" fill="#fff" stroke="#000" stroke-miterlimit="10" stroke-width="5"/><path d="M446.62,164s53.48,32.66,61.49,47.16c5.18,9.37-1.16,7.62-6.3,5.2a.4.4,0,0,0-.41.69c5.16,3.79,12.82,9.53,14.6,11.44,2.75,2.95,12.83,28.16,12.93,29.94s-5.73,4.37-5.73,4.37l-.11,2.83s8.58.35,9.61,10.32,7.38,29.71-21.45,51.39-4.9-2.86-4.9-2.86-23.81,21.71-26.68,21.59-4.91-20-4.91-20,.81-19.81-6.74-45.64-15-54.47-15-54.47-18.3-43.27-15.09-51.64C438,174.29,437.65,164.35,446.62,164Z" fill="#fff" stroke="#000" stroke-miterlimit="10" stroke-width="5"/><polyline points="416.23 322.53 380.96 229.58 315.6 284.85 298.34 258.96 258.77 299.82 242.76 283.13 198.45 326.56" fill="none" stroke="#000" stroke-miterlimit="10" stroke-width="5"/><path d="M239.81,451.4V411.62h12.24a18.56,18.56,0,0,1,9.39,2.37,16.42,16.42,0,0,1,6.46,6.72,20.67,20.67,0,0,1,2.32,9.9v1.83a20.76,20.76,0,0,1-2.28,9.86,16.41,16.41,0,0,1-6.43,6.7,18.83,18.83,0,0,1-9.38,2.4Zm8.2-33.14v26.56h4a8.88,8.88,0,0,0,7.35-3.15c1.69-2.09,2.56-5.09,2.6-9v-2.11q0-6.06-2.52-9.19t-7.35-3.13Z"/><path d="M298.06,443.2H283.69L281,451.4h-8.71l14.8-39.78h7.6l14.89,39.78h-8.72Zm-12.15-6.64h9.94l-5-14.88Z"/><path d="M339.92,418.26H327.73V451.4h-8.2V418.26h-12v-6.64h32.41Z"/><path d="M363.77,443.2H349.4l-2.74,8.2H338l14.81-39.78h7.59l14.89,39.78h-8.71Zm-12.16-6.64h9.94l-5-14.88Z"/><path d="M256.62,382.34l8.74-18.92h9.46L261,390.18v15.23h-8.79V390.18l-13.79-26.76h9.49Z"/><path d="M303.91,387.21H287.3v11.25h19.5v7H278.65v-42h28.09v7H287.3v10h16.61Z"/><path d="M344.05,370.43H331.19v35h-8.65v-35H309.85v-7h34.2Z"/><path d="M358.18,405.41h-8.65v-42h8.65Z"/></svg>