<svg xmlns="http://www.w3.org/2000/svg" viewBox="0 0 291.48 291.48"><title>yetibrand_final</title><rect x="0.02" y="-0.5" width="291" height="291" fill="#0a86c4" opacity="0"/><rect x="102.74" y="161.5" width="82.05" height="69.37" fill="none" stroke="#fff" stroke-miterlimit="10" stroke-width="3"/><path d="M144.06,58.7a3.78,3.78,0,0,0-1.3,0c-6.53,1.1-54.66,10.38-48.64,20.12,2.9,4.68,3.76,9.82,1.78,14.72L95.31,95c-2.11,5.22-10.54,14.34-5.06,12.73,9-2.63,1,2.74-3.84,10.53-11.54,18.43,13.75-9.77,0,11.41-10.26,15.79-.11,9.15,0,12.28.16,4.8.27,6.84.59,7.38a7.12,7.12,0,0,1,.58,4.36c-.15,2.32,2,4.41,5.31,5,10.79,2.06,23.49,2.39,36.34,4.25,12.31,1.79,7.82-2,7.82-4.87a5.31,5.31,0,0,1,0-2c.49-2.38,5.2.55,7.69,0,4-.85,5.3-2.58,5.77.07a8.4,8.4,0,0,1,0,2c-.18,2.83-.94,3.66-.61,4.38.85,1.89,7.9.59,8.43.5,16-2.93,26.94.51,36.34-4.25,3.57-1.81,4.79-3.73,5.31-5a12.87,12.87,0,0,0,.58-4.36s.18-4.57.59-7.39a1.46,1.46,0,0,1,.17-.53c.75-1.28,3.23-.31,4.08-1.15,1-1-.68-4.42-4.25-10.6-3.11-5.4-4.64-7.76-4.09-8.25.89-.78,6.11,4.22,7.08,3.39s-2.14-5.26-3-6.54c-4.09-6.24-8.49-10.23-7.85-11,.24-.29,1,.19,4,.43,1,.08,1.54.12,1.67,0,.88-.93-3.33-4.75-6.73-12.72-.31-.72-.46-1.08-.59-1.46-2.28-6.67,1.58-11.21,1.78-14.71C194,68.17,149.75,59.74,144.06,58.7Z" fill="none" stroke="#fff" stroke-miterlimit="10" stroke-width="5"/><path d="M115.45,84.82a235.36,235.36,0,0,1,56.64,0" fill="none" stroke="#fff" stroke-miterlimit="10" stroke-width="5"/><path d="M127.9,91.83l2-7.79a.24.24,0,0,0-.27-.3l-6.19.94a.24.24,0,0,0-.17.36l4.2,6.86A.24.24,0,0,0,127.9,91.83Z" fill="none" stroke="#fff" stroke-miterlimit="10" stroke-width="4"/><path d="M160.43,91.92l3.81-7.08a.25.25,0,0,0-.19-.36l-6.24-.58a.24.24,0,0,0-.25.31L160,91.88A.24.24,0,0,0,160.43,91.92Z" fill="none" stroke="#fff" stroke-miterlimit="10" stroke-width="4"/><path d="M80,86.23s-24.49,15-28.15,21.59c-2.37,4.29.53,3.49,2.88,2.38a.19.19,0,0,1,.19.32,83.87,83.87,0,0,0-6.69,5.24c-1.25,1.34-5.87,12.89-5.92,13.7s2.63,2,2.63,2l.05,1.3a4.83,4.83,0,0,0-4.4,4.72c-.47,4.56-3.38,13.6,9.82,23.53s2.24-1.31,2.24-1.31,10.91,9.94,12.22,9.89,2.25-9.18,2.25-9.18a71.94,71.94,0,0,1,3.08-20.89c3.45-11.82,6.86-24.94,6.86-24.94S85.43,94.77,84,90.94C84,90.94,84.11,86.39,80,86.23Z" fill="none" stroke="#fff" stroke-miterlimit="10" stroke-width="5"/><path d="M207.53,84.85s24.49,15,28.16,21.59c2.36,4.29-.54,3.48-2.89,2.38a.18.18,0,0,0-.19.31c2.36,1.74,5.87,4.36,6.69,5.24,1.26,1.35,5.87,12.89,5.92,13.71s-2.63,2-2.63,2l-.05,1.29a4.84,4.84,0,0,1,4.4,4.73c.47,4.56,3.38,13.6-9.82,23.53s-2.24-1.31-2.24-1.31-10.9,9.93-12.21,9.88-2.25-9.18-2.25-9.18a71.77,71.77,0,0,0-3.09-20.89c-3.45-11.82-6.85-24.94-6.85-24.94s-8.38-19.81-6.91-23.64C203.57,89.55,203.43,85,207.53,84.85Z" fill="none" stroke="#fff" stroke-miterlimit="10" stroke-width="5"/><polyline points="193.62 157.42 177.47 114.86 147.55 140.17 139.65 128.31 121.53 147.02 114.2 139.38 93.92 159.26" fill="none" stroke="#fff" stroke-miterlimit="10" stroke-width="5"/><path d="M113,216.42V198.21h5.61a8.49,8.49,0,0,1,4.29,1.08,7.51,7.51,0,0,1,3,3.08,9.47,9.47,0,0,1,1.07,4.53v.84a9.44,9.44,0,0,1-1,4.51,7.5,7.5,0,0,1-2.94,3.07,8.67,8.67,0,0,1-4.3,1.1Zm3.76-15.17v12.16h1.81a4.05,4.05,0,0,0,3.36-1.44,6.44,6.44,0,0,0,1.19-4.12v-1a6.58,6.58,0,0,0-1.15-4.21,4,4,0,0,0-3.36-1.43Z" fill="#fff"/><path d="M139.63,212.67h-6.58l-1.25,3.75h-4l6.78-18.21h3.48l6.82,18.21h-4Zm-5.56-3h4.55l-2.29-6.82Z" fill="#fff"/><path d="M158.79,201.25h-5.58v15.17h-3.75V201.25H144v-3h14.83Z" fill="#fff"/><path d="M169.71,212.67h-6.58l-1.25,3.75h-4l6.78-18.21h3.48L175,216.42h-4Zm-5.56-3h4.55l-2.29-6.82Z" fill="#fff"/><path d="M120.66,184.8l4-8.66H129l-6.31,12.25v7h-4v-7l-6.31-12.25h4.35Z" fill="#fff"/><path d="M142.31,187h-7.6v5.15h8.92v3.18H130.74V176.14H143.6v3.21h-8.89v4.58h7.6Z" fill="#fff"/><path d="M160.69,179.35H154.8v16h-4v-16H145v-3.21h15.66Z" fill="#fff"/><path d="M167.16,195.36h-4V176.14h4Z" fill="#fff"/></svg>